<svg width="1080" height="1080" viewBox="0 0 1080 1080" fill="none" xmlns="http://www.w3.org/2000/svg">
<g clip-path="url(#clip0_389_2536)">
<rect width="1080" height="1080" fill="black"/>
<path d="M319.001 171.502H108.001L430.5 570L548.5 458.5L319.001 171.502Z" fill="white"/>
<path d="M895.001 892.502L598 525.5L473.501 627.502L685.001 892.502H895.001Z" fill="white"/>
<path d="M949.24 178.846C841.564 128.752 656 232.5 431 466.5C447.793 489.346 477 526 477 526C552 452.5 815.152 203.218 920.45 250.598C972.704 274.11 943.851 395.881 895.532 472.478C894.174 474.631 894.191 475.854 894.652 478.046C897.124 477.871 898.092 477.297 899.404 475.803C958.883 404.038 1034.64 225.421 949.24 178.846Z" fill="#8EC5FF"/>
<path d="M166.329 950.992C113.411 831.273 258.5 614.752 500 398.501L548.5 459.501C485 516.501 188.877 787.001 246.005 920.787C270.806 978.868 405.601 949.654 491.029 898.031C493.43 896.58 494.778 896.625 497.183 897.179C496.937 899.9 496.285 900.955 494.611 902.368C414.27 966.392 215.842 1046.09 166.329 950.992Z" fill="#8EC5FF"/>
</g>
<defs>
<clipPath id="clip0_389_2536">
<rect width="1080" height="1080" fill="white"/>
</clipPath>
</defs>
</svg>
